<mxfile host="app.diagrams.net" modified="2024-04-01T03:52:51.969Z" agent="Mozilla/5.0 (Macintosh; Intel Mac OS X 10_15_7) AppleWebKit/605.1.15 (KHTML, like Gecko) Version/17.4 Safari/605.1.15" etag="2e-me3gs8HRrjCGEv_Q1" version="24.1.0" type="device">
  <diagram name="Page-1" id="QNVAXEFG_coX6fo7xSKH">
    <mxGraphModel dx="984" dy="667" grid="1" gridSize="10" guides="1" tooltips="1" connect="1" arrows="1" fold="1" page="1" pageScale="1" pageWidth="827" pageHeight="1169" math="0" shadow="0">
      <root>
        <mxCell id="0" />
        <mxCell id="1" parent="0" />
        <mxCell id="DXjjxYE0g-5OhmQiskfD-1" value="&lt;font&gt;&lt;font size=&quot;5&quot;&gt;&lt;span style=&quot;caret-color: rgb(204, 0, 0);&quot;&gt;&amp;nbsp; &amp;nbsp; &amp;nbsp; &amp;nbsp; &amp;nbsp; &amp;nbsp; &amp;nbsp;&lt;/span&gt;&lt;/font&gt;&lt;/font&gt;&lt;div&gt;&lt;font&gt;&lt;font size=&quot;5&quot;&gt;&lt;span style=&quot;caret-color: rgb(204, 0, 0);&quot;&gt;&lt;span style=&quot;white-space: pre;&quot;&gt;&#x9;   &amp;nbsp;&lt;/span&gt;&lt;/span&gt;&lt;/font&gt;&lt;/font&gt;&lt;/div&gt;&lt;div&gt;&lt;font&gt;&lt;font size=&quot;5&quot;&gt;&lt;span style=&quot;caret-color: rgb(204, 0, 0);&quot;&gt;&lt;span style=&quot;white-space: pre;&quot;&gt;&#x9;     &lt;/span&gt;do &amp;nbsp;&lt;/span&gt;&lt;/font&gt;&lt;font size=&quot;5&quot;&gt;&amp;nbsp;&lt;/font&gt;&lt;/font&gt;&lt;div style=&quot;font-size: 24px;&quot;&gt;&lt;font style=&quot;font-size: 24px;&quot;&gt;&amp;nbsp; &amp;nbsp; &amp;nbsp; &amp;nbsp; &amp;nbsp; &amp;nbsp; &amp;nbsp;{&amp;nbsp;&lt;/font&gt;&lt;/div&gt;&lt;div style=&quot;font-size: 24px;&quot;&gt;&lt;font style=&quot;font-size: 24px;&quot;&gt;&lt;br&gt;&lt;/font&gt;&lt;/div&gt;&lt;div style=&quot;font-size: 24px;&quot;&gt;&lt;font style=&quot;font-size: 24px;&quot;&gt;&amp;nbsp;&lt;/font&gt;&lt;div&gt;&lt;div&gt;&lt;font style=&quot;font-size: 24px;&quot;&gt;&amp;nbsp; &amp;nbsp; &amp;nbsp; &amp;nbsp; &amp;nbsp; &amp;nbsp; &amp;nbsp; &amp;nbsp; &amp;nbsp; &amp;nbsp;&lt;/font&gt;&amp;nbsp; &amp;nbsp;&lt;/div&gt;&lt;div&gt;&lt;span style=&quot;white-space: pre;&quot;&gt;&#x9;&lt;/span&gt;&lt;span style=&quot;white-space: pre;&quot;&gt;&#x9;i++;&lt;/span&gt;&lt;br&gt;&lt;/div&gt;&lt;div&gt;&lt;font style=&quot;font-size: 24px;&quot;&gt;&amp;nbsp; &amp;nbsp; &amp;nbsp; &amp;nbsp; &amp;nbsp; &amp;nbsp; &amp;nbsp;}&amp;nbsp;&lt;/font&gt;&lt;span style=&quot;caret-color: rgb(204, 0, 0); font-size: x-large;&quot;&gt;while ( i &amp;lt; 10 &amp;nbsp; &amp;nbsp;);&lt;/span&gt;&lt;/div&gt;&lt;/div&gt;&lt;/div&gt;&lt;/div&gt;" style="text;html=1;align=left;verticalAlign=middle;whiteSpace=wrap;rounded=0;" vertex="1" parent="1">
          <mxGeometry x="70" y="380" width="440" height="211.25" as="geometry" />
        </mxCell>
        <mxCell id="DXjjxYE0g-5OhmQiskfD-4" value="" style="strokeWidth=2;html=1;shape=mxgraph.flowchart.annotation_2;align=left;labelPosition=right;pointerEvents=1;rotation=90;fillColor=#fa6800;fontColor=#CC99FF;strokeColor=#C73500;" vertex="1" parent="1">
          <mxGeometry x="154.38" y="365" width="50" height="50" as="geometry" />
        </mxCell>
        <mxCell id="DXjjxYE0g-5OhmQiskfD-5" value="" style="strokeWidth=2;html=1;shape=mxgraph.flowchart.annotation_2;align=left;labelPosition=right;pointerEvents=1;rotation=-90;fillColor=#fa6800;fontColor=#CC99FF;strokeColor=#C73500;" vertex="1" parent="1">
          <mxGeometry x="260" y="602.5" width="50" height="65" as="geometry" />
        </mxCell>
        <mxCell id="DXjjxYE0g-5OhmQiskfD-15" value="Keyword" style="text;html=1;align=center;verticalAlign=middle;whiteSpace=wrap;rounded=0;fontSize=13;fontStyle=1" vertex="1" parent="1">
          <mxGeometry x="149.38" y="327.82" width="60" height="30" as="geometry" />
        </mxCell>
        <mxCell id="DXjjxYE0g-5OhmQiskfD-16" value="Control variable" style="text;html=1;align=center;verticalAlign=middle;whiteSpace=wrap;rounded=0;fontSize=13;fontStyle=1" vertex="1" parent="1">
          <mxGeometry x="144.38" y="190" width="90" height="30" as="geometry" />
        </mxCell>
        <mxCell id="DXjjxYE0g-5OhmQiskfD-67" value="" style="strokeWidth=2;html=1;shape=mxgraph.flowchart.annotation_2;align=left;labelPosition=right;pointerEvents=1;rotation=90;fillColor=#fa6800;fontColor=#CC99FF;strokeColor=#C73500;" vertex="1" parent="1">
          <mxGeometry x="164.38" y="210" width="50" height="77.5" as="geometry" />
        </mxCell>
        <mxCell id="DXjjxYE0g-5OhmQiskfD-69" value="" style="strokeWidth=2;html=1;shape=mxgraph.flowchart.annotation_2;align=left;labelPosition=right;pointerEvents=1;rotation=-180;fillColor=#fa6800;fontColor=#CC99FF;strokeColor=#C73500;" vertex="1" parent="1">
          <mxGeometry x="240" y="551" width="50" height="33.13" as="geometry" />
        </mxCell>
        <mxCell id="DXjjxYE0g-5OhmQiskfD-70" value="Update control&lt;div&gt;variable&lt;/div&gt;" style="text;html=1;align=center;verticalAlign=middle;whiteSpace=wrap;rounded=0;fontSize=13;fontStyle=1" vertex="1" parent="1">
          <mxGeometry x="290" y="551" width="120" height="30" as="geometry" />
        </mxCell>
        <mxCell id="DXjjxYE0g-5OhmQiskfD-72" value="Initial value" style="text;html=1;align=center;verticalAlign=middle;whiteSpace=wrap;rounded=0;fontStyle=1" vertex="1" parent="1">
          <mxGeometry x="260" y="280" width="60" height="30" as="geometry" />
        </mxCell>
        <mxCell id="DXjjxYE0g-5OhmQiskfD-78" value="&lt;span style=&quot;caret-color: rgb(204, 0, 0); font-size: x-large; text-align: left;&quot;&gt;int i = 0;&lt;/span&gt;" style="text;html=1;align=center;verticalAlign=middle;whiteSpace=wrap;rounded=0;" vertex="1" parent="1">
          <mxGeometry x="144.38" y="280" width="95.62" height="30" as="geometry" />
        </mxCell>
        <mxCell id="DXjjxYE0g-5OhmQiskfD-80" value="" style="endArrow=classic;html=1;rounded=0;exitX=0;exitY=0.5;exitDx=0;exitDy=0;entryX=1;entryY=0.5;entryDx=0;entryDy=0;" edge="1" parent="1" source="DXjjxYE0g-5OhmQiskfD-72" target="DXjjxYE0g-5OhmQiskfD-78">
          <mxGeometry width="50" height="50" relative="1" as="geometry">
            <mxPoint x="460" y="390" as="sourcePoint" />
            <mxPoint x="510" y="340" as="targetPoint" />
          </mxGeometry>
        </mxCell>
        <mxCell id="DXjjxYE0g-5OhmQiskfD-81" value="" style="endArrow=classic;html=1;rounded=0;exitX=0;exitY=0.5;exitDx=0;exitDy=0;" edge="1" parent="1" source="DXjjxYE0g-5OhmQiskfD-84">
          <mxGeometry width="50" height="50" relative="1" as="geometry">
            <mxPoint x="300" y="660" as="sourcePoint" />
            <mxPoint x="310" y="600" as="targetPoint" />
          </mxGeometry>
        </mxCell>
        <mxCell id="DXjjxYE0g-5OhmQiskfD-82" value="" style="strokeWidth=2;html=1;shape=mxgraph.flowchart.annotation_2;align=left;labelPosition=right;pointerEvents=1;rotation=-90;fillColor=#fa6800;fontColor=#CC99FF;strokeColor=#C73500;" vertex="1" parent="1">
          <mxGeometry x="180" y="610" width="50" height="50" as="geometry" />
        </mxCell>
        <mxCell id="DXjjxYE0g-5OhmQiskfD-83" value="Keyword" style="text;html=1;align=center;verticalAlign=middle;whiteSpace=wrap;rounded=0;fontSize=13;fontStyle=1" vertex="1" parent="1">
          <mxGeometry x="175" y="660" width="60" height="30" as="geometry" />
        </mxCell>
        <mxCell id="DXjjxYE0g-5OhmQiskfD-84" value="Final value" style="text;html=1;align=center;verticalAlign=middle;whiteSpace=wrap;rounded=0;fontStyle=1" vertex="1" parent="1">
          <mxGeometry x="390" y="585" width="60" height="30" as="geometry" />
        </mxCell>
        <mxCell id="DXjjxYE0g-5OhmQiskfD-85" value="Condition" style="text;html=1;align=center;verticalAlign=middle;whiteSpace=wrap;rounded=0;fontSize=13;fontStyle=1" vertex="1" parent="1">
          <mxGeometry x="245" y="660" width="90" height="30" as="geometry" />
        </mxCell>
      </root>
    </mxGraphModel>
  </diagram>
</mxfile>
